<?xml version="1.0" encoding="utf-8"?>
<!-- Generator: Adobe Illustrator 18.1.1, SVG Export Plug-In . SVG Version: 6.00 Build 0)  -->
<svg version="1.1" id="Layer_1" xmlns="http://www.w3.org/2000/svg" xmlns:xlink="http://www.w3.org/1999/xlink" x="0px" y="0px"
	 viewBox="0 0 93.5 93.5" enable-background="new 0 0 93.5 93.5" xml:space="preserve">
<path fill="#FFFFFF" d="M46.7,57.3c2.5,0,4.6-0.9,6.4-2.6c1.8-1.8,2.6-3.9,2.6-6.4s-0.9-4.6-2.6-6.4s-3.9-2.6-6.4-2.6
	s-4.6,0.9-6.4,2.6s-2.6,3.9-2.6,6.4s0.9,4.6,2.6,6.4C42.1,56.4,44.2,57.3,46.7,57.3z M46.7,53.3c-1.4,0-2.6-0.5-3.6-1.5
	c-1-1-1.5-2.2-1.5-3.6c0-1.4,0.5-2.6,1.5-3.6s2.2-1.5,3.6-1.5c1.4,0,2.6,0.5,3.6,1.5s1.5,2.2,1.5,3.6c0,1.4-0.5,2.6-1.5,3.6
	C49.3,52.8,48.2,53.3,46.7,53.3z M30.7,64.3c-1.1,0-2.1-0.4-2.8-1.2c-0.8-0.8-1.2-1.7-1.2-2.8V36.2c0-1.1,0.4-2.1,1.2-2.8
	c0.8-0.8,1.7-1.2,2.8-1.2H37l3.7-4h12.1l3.7,4h6.3c1.1,0,2.1,0.4,2.8,1.2s1.2,1.7,1.2,2.8v24.1c0,1.1-0.4,2.1-1.2,2.8
	s-1.7,1.2-2.8,1.2H30.7z M30.7,60.3h32.2V36.2h-8.1l-3.7-4h-8.5l-3.7,4h-8.1V60.3z"/>
<circle fill="#1B9A48" stroke="#FFFFFF" stroke-miterlimit="10" enable-background="new    " cx="46.7" cy="46.7" r="46.2"/>
<path fill="#FFFFFF" d="M46.7,55.3c2.5,0,4.6-0.9,6.4-2.6c1.8-1.8,2.6-3.9,2.6-6.4s-0.9-4.6-2.6-6.4s-3.9-2.6-6.4-2.6
	s-4.6,0.9-6.4,2.6s-2.6,3.9-2.6,6.4s0.9,4.6,2.6,6.4C42.1,54.4,44.2,55.3,46.7,55.3z M46.7,51.3c-1.4,0-2.6-0.5-3.6-1.5
	c-1-1-1.5-2.2-1.5-3.6c0-1.4,0.5-2.6,1.5-3.6s2.2-1.5,3.6-1.5c1.4,0,2.6,0.5,3.6,1.5s1.5,2.2,1.5,3.6c0,1.4-0.5,2.6-1.5,3.6
	C49.3,50.8,48.2,51.3,46.7,51.3z M30.7,62.3c-1.1,0-2.1-0.4-2.8-1.2c-0.8-0.8-1.2-1.7-1.2-2.8V34.2c0-1.1,0.4-2.1,1.2-2.8
	c0.8-0.8,1.7-1.2,2.8-1.2H37l3.7-4h12.1l3.7,4h6.3c1.1,0,2.1,0.4,2.8,1.2c0.8,0.8,1.2,1.7,1.2,2.8v24.1c0,1.1-0.4,2.1-1.2,2.8
	s-1.7,1.2-2.8,1.2H30.7z M30.7,58.3h32.2V34.2h-8.1l-3.7-4h-8.5l-3.7,4h-8.1V58.3z"/>
</svg>
