<?xml version="1.0" encoding="utf-8"?>
<!-- Generator: Adobe Illustrator 18.1.1, SVG Export Plug-In . SVG Version: 6.00 Build 0)  -->
<svg version="1.1" id="Layer_1" xmlns="http://www.w3.org/2000/svg" xmlns:xlink="http://www.w3.org/1999/xlink" x="0px" y="0px"
	 viewBox="0 0 337.8 146.6" enable-background="new 0 0 337.8 146.6" xml:space="preserve">
<g>
	<g>
		<g>
			<g enable-background="new    ">
				<path fill="#1B9A48" d="M14.8,146.1L0,100.8h10.9l12.9,40.1h-5.4l13.5-40.1h9.7l12.9,40.1h-5.2l13.2-40.1h10l-14.8,45.3H46.3
					l-11.5-35.2h3l-11.8,35.2H14.8z"/>
				<path fill="#1B9A48" d="M92.2,146.6c-4,0-7.5-0.8-10.4-2.3s-5.3-3.7-7-6.4c-1.6-2.7-2.5-5.8-2.5-9.2c0-3.5,0.8-6.6,2.4-9.3
					c1.6-2.7,3.8-4.8,6.6-6.3c2.8-1.5,6-2.3,9.5-2.3c3.4,0,6.5,0.7,9.2,2.2c2.7,1.4,4.9,3.5,6.5,6.2c1.6,2.7,2.4,5.9,2.4,9.7
					c0,0.4,0,0.8-0.1,1.3c0,0.5-0.1,1-0.1,1.4H80.6v-5.9h23l-3.9,1.7c0-1.8-0.4-3.4-1.1-4.7c-0.7-1.3-1.7-2.4-3-3.1
					c-1.3-0.8-2.8-1.1-4.5-1.1s-3.2,0.4-4.6,1.1c-1.3,0.8-2.3,1.8-3.1,3.2s-1.1,3-1.1,4.8v1.6c0,1.9,0.4,3.6,1.3,5
					c0.8,1.4,2,2.5,3.6,3.3c1.5,0.8,3.3,1.1,5.4,1.1c1.9,0,3.5-0.3,4.9-0.8c1.4-0.6,2.7-1.4,3.8-2.5l5.4,5.8c-1.6,1.8-3.6,3.2-6,4.2
					C98.1,146.1,95.3,146.6,92.2,146.6z"/>
				<path fill="#1B9A48" d="M115.8,146.1v-48h10.1v20.3l-0.6,10.3l0.2,10.4v7.1H115.8z M136.3,146.6c-3.1,0-5.7-0.6-7.9-1.9
					c-2.2-1.3-3.9-3.3-5-5.9c-1.2-2.7-1.7-6-1.7-10.1c0-4.1,0.6-7.5,1.8-10.1c1.2-2.6,2.9-4.6,5.1-5.9s4.8-1.9,7.7-1.9
					c3.3,0,6.2,0.7,8.8,2.2c2.6,1.5,4.7,3.5,6.2,6.2c1.5,2.7,2.3,5.8,2.3,9.5c0,3.6-0.8,6.8-2.3,9.4c-1.5,2.7-3.6,4.8-6.2,6.2
					C142.5,145.9,139.6,146.6,136.3,146.6z M134.6,138.3c1.7,0,3.2-0.4,4.5-1.2c1.3-0.8,2.4-1.9,3.2-3.3c0.8-1.4,1.2-3.2,1.2-5.1
					c0-2-0.4-3.8-1.2-5.2c-0.8-1.4-1.9-2.5-3.2-3.3c-1.3-0.8-2.8-1.2-4.5-1.2c-1.7,0-3.2,0.4-4.5,1.2c-1.3,0.8-2.4,1.9-3.2,3.3
					s-1.2,3.1-1.2,5.2c0,2,0.4,3.7,1.2,5.1c0.8,1.4,1.8,2.6,3.2,3.3C131.4,137.9,132.9,138.3,134.6,138.3z"/>
			</g>
			<g enable-background="new    ">
				<path fill="#5A4B43" d="M164.6,146.1v-45.3h19.6c4.1,0,7.5,0.7,10.5,2c2.9,1.3,5.2,3.2,6.8,5.7c1.6,2.5,2.4,5.4,2.4,8.8
					c0,3.4-0.8,6.3-2.4,8.7c-1.6,2.5-3.9,4.3-6.8,5.7c-2.9,1.3-6.4,2-10.5,2h-13.8l4.7-4.7v17.2H164.6z M175.1,130l-4.7-5h13.2
					c3.2,0,5.7-0.7,7.2-2.1c1.6-1.4,2.4-3.3,2.4-5.8c0-2.5-0.8-4.4-2.4-5.8c-1.6-1.4-4-2.1-7.2-2.1h-13.2l4.7-5V130z"/>
				<path fill="#5A4B43" d="M211.3,146.1v-48h10.1v48H211.3z"/>
				<path fill="#5A4B43" d="M241.5,146.6c-2.7,0-5-0.5-7-1.4c-1.9-0.9-3.4-2.2-4.5-3.8c-1-1.6-1.6-3.4-1.6-5.4
					c0-2.1,0.5-3.9,1.5-5.4s2.6-2.8,4.8-3.7c2.2-0.9,5.1-1.3,8.6-1.3h9.3v5.9h-8.2c-2.4,0-4,0.4-4.9,1.2c-0.9,0.8-1.3,1.7-1.3,2.9
					c0,1.3,0.5,2.3,1.5,3.1c1,0.8,2.4,1.1,4.2,1.1c1.7,0,3.2-0.4,4.5-1.2c1.3-0.8,2.3-2,2.9-3.5l1.6,4.7c-0.7,2.2-2.1,3.9-4,5.1
					C247.1,146,244.6,146.6,241.5,146.6z M252.1,146.1v-6.8l-0.6-1.5v-12.2c0-2.2-0.7-3.8-2-5c-1.3-1.2-3.3-1.8-6-1.8
					c-1.9,0-3.7,0.3-5.5,0.9c-1.8,0.6-3.3,1.4-4.6,2.4l-3.6-7.1c1.9-1.3,4.2-2.4,6.9-3.1c2.7-0.7,5.4-1.1,8.2-1.1
					c5.3,0,9.4,1.3,12.4,3.8c2.9,2.5,4.4,6.4,4.4,11.7v19.9H252.1z"/>
				<path fill="#5A4B43" d="M291.8,110.8c2.8,0,5.2,0.5,7.4,1.6c2.2,1.1,3.9,2.8,5.1,5c1.3,2.3,1.9,5.2,1.9,8.7v19.9h-10.1v-18.4
					c0-2.8-0.6-4.9-1.8-6.2c-1.2-1.3-3-2-5.2-2c-1.6,0-3,0.3-4.3,1c-1.3,0.7-2.3,1.7-3,3.1c-0.7,1.4-1.1,3.1-1.1,5.3v17.2h-10.1
					v-34.8h9.6v9.6l-1.8-2.9c1.3-2.3,3-4.1,5.4-5.4C286.2,111.4,288.9,110.8,291.8,110.8z"/>
				<path fill="#5A4B43" d="M311.2,119.8v-7.8h24.1v7.8H311.2z M329.6,146.6c-4.1,0-7.3-1-9.6-3.1c-2.3-2.1-3.4-5.2-3.4-9.3v-30.5
					h10.1V134c0,1.5,0.4,2.6,1.2,3.4c0.8,0.8,1.8,1.2,3.2,1.2c1.6,0,3-0.4,4.1-1.3l2.7,7.1c-1,0.7-2.3,1.3-3.7,1.6
					C332.7,146.4,331.2,146.6,329.6,146.6z"/>
			</g>
		</g>
	</g>
	<g>
		<g>
			<path fill="#5A4B43" d="M171.6,84.2c-0.4-40.5-24.9-60.9-24.9-60.9s17,24.8,17.3,60.9H171.6z"/>
			<path fill="#5A4B43" d="M163,53.8c0.4,2.5,0.5,5.1,0.5,7.6c5.4-18.4,13.9-29.6,13.9-29.6S169,38.1,162,51.3
				C162.6,52,162.9,52.7,163,53.8z"/>
			<g>
				<path fill="#5A4B43" d="M169.1,77c0.1,2.3,0.2,4.6,0.6,6.9C162.2,68.1,153,59.2,153,59.2s8.5,4.5,16.8,15.4
					C169.4,75.3,169.1,76.2,169.1,77z"/>
				<g>
					<path fill="#1B9A48" d="M151.2,32.8l1.9-1.8c3.1-4.5,0.1-14.1-7.3-22.2C137.9,0,123.5,0,123.5,0s-1.5,14.3,6.4,23.2
						C137.3,31.3,146.5,35.4,151.2,32.8z"/>
					<path fill="#1B9A48" d="M199,11.4c0,0-12.9-0.7-20.4,6.8c-6.9,6.9-10,15.3-7.5,19.4l1.7,1.7c4.2,2.5,12.5-0.6,19.4-7.5
						C199.8,24.3,199,11.4,199,11.4z"/>
					<path fill="#1B9A48" d="M147.5,45.4c-7.9-5.7-19.3-3.3-19.3-3.3s1.2,11.7,8.9,17.4c7.3,5.4,15.3,6.9,18.6,4.1l1.2-1.7
						C158.7,57.8,154.8,50.7,147.5,45.4z"/>
				</g>
			</g>
		</g>
		<polygon fill="#5A4B43" points="228.1,86.4 105.8,86.4 105.8,85.8 163.9,80.8 171.4,80.8 228.1,85.8 		"/>
	</g>
</g>
</svg>
