<?xml version="1.0" encoding="utf-8"?>
<!-- Generator: Adobe Illustrator 18.1.1, SVG Export Plug-In . SVG Version: 6.00 Build 0)  -->
<svg version="1.1" id="Layer_1" xmlns="http://www.w3.org/2000/svg" xmlns:xlink="http://www.w3.org/1999/xlink" x="0px" y="0px"
	 viewBox="0 0 64.9 56.5" enable-background="new 0 0 64.9 56.5" xml:space="preserve">
<path fill="#1B9A48" enable-background="new    " d="M40.4,34.6c-0.2-4.5-1.1-8.4-2.3-11.7c0.9-2.5,2-4.5,2.8-6.1l0,0
	c1.8,1.1,5.4-0.3,8.3-3.2c3.2-3.2,2.9-8.7,2.9-8.7s-5.5-0.3-8.7,2.9c-3,3-4.3,6.5-3.2,8.3l0.1,0.1c-1,1.1-2.1,2.5-3.1,4.3
	c-1.4-3.2-3.1-5.7-4.5-7.4c1.1-2-0.2-5.9-3.2-9.3C26,0,19.8,0,19.8,0s-0.7,6.1,2.8,9.9c3.2,3.5,7.1,5.2,9.1,4.1l0.2-0.2
	c1.6,3.2,3.6,8.3,4.6,14.7c-0.9-0.8-1.7-1.5-2.4-2c0.8-1.7-0.9-4.8-4-7C26.7,17,21.8,18,21.8,18s0.5,5,3.8,7.4c3.1,2.3,6.5,3,8,1.7
	l0.2-0.3c0.8,0.9,1.9,2.3,3,4.1c0.1,1.2,0.2,2.4,0.3,3.6h0"/>
<text transform="matrix(1 0 0 1 -3.051758e-005 52.472)" fill="#1B9A48" font-family="'Montserrat-Regular'" font-size="16">My plants</text>
</svg>
